<?xml version="1.0" encoding="utf-8"?>
<!-- Generator: $$$/GeneralStr/196=Adobe Illustrator 27.6.0, SVG Export Plug-In . SVG Version: 6.00 Build 0)  -->
<svg version="1.1" xmlns="http://www.w3.org/2000/svg" xmlns:xlink="http://www.w3.org/1999/xlink" x="0px" y="0px"
	viewBox="0 0 502.51 146.98" style="enable-background:new 0 0 502.51 146.98;" xml:space="preserve">
	<style type="text/css">
		.st0 {
			fill: #b4b4b4;
			stroke: #b4b4b4;
			stroke-miterlimit: 10;
		}

		.st1 {
			fill: #b4b4b4;
		}

		.st2 {
			fill: #ffffff;
		}

		.st3 {
			fill: #b4b4b4;
		}
	</style>
	<g id="Layer_1">
		<circle class="st0" cx="97.45" cy="77.18" r="10.11" />
		<g>
			<g>
				<path class="st1" d="M22.99,90.36l6.1-3.66c4.3,7.91,9.26,11.87,14.89,11.87c2.41,0,4.67-0.56,6.79-1.68
				c2.12-1.12,3.73-2.63,4.83-4.52c1.11-1.89,1.66-3.89,1.66-6.01c0-2.41-0.81-4.77-2.44-7.08c-2.25-3.19-6.35-7.03-12.3-11.52
				c-5.99-4.52-9.72-7.8-11.18-9.81c-2.54-3.39-3.81-7.05-3.81-10.99c0-3.12,0.75-5.97,2.25-8.54c1.5-2.57,3.6-4.6,6.32-6.08
				c2.72-1.48,5.67-2.22,8.86-2.22c3.39,0,6.55,0.84,9.5,2.51c2.95,1.68,6.06,4.76,9.35,9.25l-5.86,4.44c-2.7-3.58-5-5.94-6.91-7.08
				c-1.9-1.14-3.98-1.71-6.23-1.71c-2.9,0-5.27,0.88-7.1,2.64c-1.84,1.76-2.76,3.92-2.76,6.49c0,1.56,0.33,3.08,0.98,4.54
				c0.65,1.46,1.84,3.06,3.56,4.79c0.94,0.91,4.04,3.3,9.28,7.18c6.22,4.59,10.48,8.68,12.79,12.26c2.31,3.58,3.47,7.18,3.47,10.79
				c0,5.21-1.98,9.73-5.93,13.57c-3.96,3.84-8.76,5.76-14.43,5.76c-4.36,0-8.32-1.16-11.87-3.49
				C29.26,99.73,25.99,95.83,22.99,90.36z" />
				<path class="st1" d="M97.34,49.25c8.18,0,14.97,2.96,20.35,8.89c4.89,5.4,7.34,11.8,7.34,19.19c0,7.42-2.58,13.91-7.75,19.46
				c-5.17,5.55-11.81,8.33-19.93,8.33c-8.15,0-14.81-2.77-19.98-8.33c-5.17-5.55-7.75-12.04-7.75-19.46
				c0-7.36,2.45-13.74,7.34-19.14C82.33,52.23,89.13,49.25,97.34,49.25z M97.32,55.94c-5.68,0-10.57,2.1-14.65,6.3
				c-4.08,4.2-6.12,9.28-6.12,15.23c0,3.84,0.93,7.42,2.79,10.74c1.86,3.32,4.38,5.88,7.55,7.69c3.17,1.81,6.65,2.71,10.44,2.71
				c3.79,0,7.27-0.9,10.44-2.71c3.17-1.81,5.68-4.37,7.55-7.69c1.86-3.32,2.79-6.9,2.79-10.74c0-5.96-2.05-11.04-6.15-15.23
				S102.97,55.94,97.32,55.94z" />
				<path class="st1" d="M130.78,50.62h6.84v9.52c2.73-3.65,5.76-6.37,9.08-8.18s6.93-2.71,10.84-2.71c3.97,0,7.5,1.01,10.57,3.03
				c3.08,2.02,5.35,4.74,6.81,8.15s2.2,8.74,2.2,15.97v27.34h-6.84V78.4c0-6.12-0.25-10.21-0.76-12.26
				c-0.79-3.52-2.31-6.16-4.56-7.93c-2.25-1.77-5.18-2.66-8.79-2.66c-4.13,0-7.84,1.37-11.11,4.1c-3.27,2.73-5.43,6.12-6.47,10.16
				c-0.65,2.64-0.98,7.45-0.98,14.45v19.48h-6.84V50.62z" />
				<path class="st1" d="M230.66,50.62h6.84v42.33c0,7.45-0.65,12.91-1.95,16.36c-1.79,4.88-4.9,8.64-9.33,11.28
				c-4.43,2.64-9.75,3.96-15.97,3.96c-4.56,0-8.65-0.65-12.28-1.93c-3.63-1.29-6.58-3.02-8.86-5.19c-2.28-2.17-4.38-5.35-6.3-9.53
				h7.42c2.02,3.52,4.63,6.12,7.82,7.81c3.19,1.69,7.15,2.54,11.88,2.54c4.66,0,8.6-0.87,11.81-2.6c3.21-1.74,5.5-3.92,6.87-6.55
				c1.37-2.63,2.05-6.87,2.05-12.73v-2.73c-2.57,3.26-5.72,5.75-9.43,7.5c-3.71,1.74-7.66,2.61-11.83,2.61
				c-4.89,0-9.48-1.21-13.78-3.64c-4.3-2.42-7.62-5.69-9.97-9.79c-2.35-4.1-3.52-8.61-3.52-13.53c0-4.92,1.22-9.5,3.67-13.75
				c2.44-4.25,5.82-7.61,10.14-10.08c4.32-2.47,8.87-3.71,13.66-3.71c3.98,0,7.68,0.82,11.12,2.47c3.44,1.64,6.75,4.35,9.95,8.13
				V50.62z M210.5,55.84c-3.87,0-7.47,0.94-10.79,2.81c-3.32,1.87-5.92,4.46-7.81,7.76c-1.89,3.3-2.83,6.88-2.83,10.72
				c0,5.83,1.95,10.64,5.86,14.45s8.97,5.71,15.19,5.71c6.28,0,11.34-1.89,15.16-5.66c3.82-3.78,5.74-8.74,5.74-14.89
				c0-4-0.88-7.58-2.64-10.72c-1.76-3.14-4.25-5.62-7.47-7.45C217.68,56.75,214.21,55.84,210.5,55.84z" />
			</g>
			<path class="st2" d="M98.89,77.18c0,0.8-0.65,1.44-1.44,1.44c-0.8,0-1.44-0.65-1.44-1.44c0-0.8,0.65-1.44,1.44-1.44
			C98.24,75.74,98.89,76.38,98.89,77.18z" />
			<g>
				<path class="st1" d="M267.66,31.92h13.87l27.63,71.83h-14.21l-5.62-14.79h-29.31l-5.84,14.79h-14.21L267.66,31.92z M274.68,50.96
				l-9.64,24.66h19.22L274.68,50.96z" />
				<path class="st1" d="M346.48,58.04l-8.25,8.25c-3.35-3.32-6.4-4.98-9.13-4.98c-1.5,0-2.67,0.32-3.52,0.95
				c-0.85,0.63-1.27,1.42-1.27,2.37c0,0.72,0.27,1.38,0.81,1.98c0.54,0.6,1.86,1.42,3.98,2.47l4.88,2.44
				c5.14,2.54,8.67,5.13,10.6,7.76c1.92,2.64,2.88,5.73,2.88,9.28c0,4.72-1.73,8.66-5.2,11.82c-3.47,3.16-8.11,4.74-13.94,4.74
				c-7.75,0-13.93-3.03-18.55-9.08l8.2-8.94c1.56,1.82,3.39,3.3,5.49,4.42s3.96,1.68,5.59,1.68c1.76,0,3.17-0.42,4.25-1.27
				c1.07-0.85,1.61-1.82,1.61-2.93c0-2.05-1.94-4.05-5.81-6.01l-4.49-2.25c-8.59-4.33-12.89-9.75-12.89-16.26
				c0-4.2,1.62-7.79,4.86-10.77c3.24-2.98,7.38-4.47,12.43-4.47c3.45,0,6.7,0.76,9.74,2.27C341.78,53.03,344.36,55.21,346.48,58.04z
				" />
				<path class="st1" d="M386.17,58.04l-8.25,8.25c-3.35-3.32-6.4-4.98-9.13-4.98c-1.5,0-2.67,0.32-3.52,0.95
				c-0.85,0.63-1.27,1.42-1.27,2.37c0,0.72,0.27,1.38,0.81,1.98c0.54,0.6,1.86,1.42,3.98,2.47l4.88,2.44
				c5.14,2.54,8.67,5.13,10.6,7.76c1.92,2.64,2.88,5.73,2.88,9.28c0,4.72-1.73,8.66-5.2,11.82c-3.47,3.16-8.11,4.74-13.94,4.74
				c-7.75,0-13.93-3.03-18.55-9.08l8.2-8.94c1.56,1.82,3.39,3.3,5.49,4.42s3.96,1.68,5.59,1.68c1.76,0,3.17-0.42,4.25-1.27
				c1.07-0.85,1.61-1.82,1.61-2.93c0-2.05-1.94-4.05-5.81-6.01l-4.49-2.25c-8.59-4.33-12.89-9.75-12.89-16.26
				c0-4.2,1.62-7.79,4.86-10.77c3.24-2.98,7.38-4.47,12.43-4.47c3.45,0,6.7,0.76,9.74,2.27C381.48,53.03,384.06,55.21,386.17,58.04z
				" />
				<path class="st1" d="M398.55,28.74c2.34,0,4.34,0.85,6.01,2.54c1.67,1.69,2.51,3.74,2.51,6.15c0,2.38-0.83,4.4-2.48,6.08
				c-1.66,1.68-3.64,2.51-5.94,2.51c-2.37,0-4.39-0.85-6.06-2.56c-1.67-1.71-2.51-3.78-2.51-6.23c0-2.34,0.83-4.35,2.48-6.01
				C394.21,29.57,396.21,28.74,398.55,28.74z M391.88,50.62h13.33v53.12h-13.33V50.62z" />
				<path class="st1" d="M445.54,58.04l-8.25,8.25c-3.35-3.32-6.4-4.98-9.13-4.98c-1.5,0-2.67,0.32-3.52,0.95
				c-0.85,0.63-1.27,1.42-1.27,2.37c0,0.72,0.27,1.38,0.81,1.98c0.54,0.6,1.86,1.42,3.98,2.47l4.88,2.44
				c5.14,2.54,8.67,5.13,10.6,7.76c1.92,2.64,2.88,5.73,2.88,9.28c0,4.72-1.73,8.66-5.2,11.82c-3.47,3.16-8.11,4.74-13.94,4.74
				c-7.75,0-13.93-3.03-18.55-9.08l8.2-8.94c1.56,1.82,3.39,3.3,5.49,4.42s3.96,1.68,5.59,1.68c1.76,0,3.17-0.42,4.25-1.27
				c1.07-0.85,1.61-1.82,1.61-2.93c0-2.05-1.94-4.05-5.81-6.01l-4.49-2.25c-8.59-4.33-12.89-9.75-12.89-16.26
				c0-4.2,1.62-7.79,4.86-10.77c3.24-2.98,7.38-4.47,12.43-4.47c3.45,0,6.7,0.76,9.74,2.27C440.84,53.03,443.42,55.21,445.54,58.04z
				" />
				<path class="st1" d="M454.33,31.04h13.33v19.58h7.91v11.47h-7.91v41.65h-13.33V62.09h-6.84V50.62h6.84V31.04z" />
			</g>
		</g>
	</g>
	<g id="Laag_2">
		<g>
			<path class="st3" d="M349.67,126.07l6.71-15.31h1.6l6.71,15.31h-2.08l-1.49-3.43h-7.89l-1.49,3.43H349.67z M357.19,113.58
			l-3.15,7.22h6.28L357.19,113.58z" />
			<path class="st3" d="M366.76,126.07v-15.31h1.97v15.31H366.76z" />
			<path class="st3" d="M377.98,130.99V114.7h1.84v1.62c1.07-1.25,2.45-1.86,4.13-1.86c1.6,0,2.93,0.57,4,1.71
			c1.07,1.12,1.62,2.54,1.62,4.22c0,1.68-0.55,3.1-1.62,4.24c-1.07,1.12-2.41,1.68-4,1.68c-1.68,0-3.06-0.61-4.13-1.86v6.54H377.98z
			 M380.97,117.47c-0.74,0.77-1.12,1.75-1.12,2.91c0,1.16,0.37,2.14,1.12,2.93c0.77,0.77,1.68,1.16,2.78,1.16
			c1.12,0,2.03-0.39,2.78-1.16c0.77-0.79,1.14-1.77,1.14-2.93c0-1.16-0.37-2.14-1.14-2.91c-0.74-0.79-1.66-1.18-2.78-1.18
			C382.66,116.29,381.74,116.69,380.97,117.47z" />
			<path class="st3" d="M391.49,120.38c0-1.68,0.57-3.11,1.68-4.22c1.14-1.14,2.56-1.71,4.24-1.71c1.68,0,3.11,0.57,4.24,1.71
			c1.14,1.12,1.71,2.54,1.71,4.22c0,1.68-0.57,3.1-1.71,4.24c-1.14,1.12-2.56,1.68-4.24,1.68c-1.68,0-3.11-0.57-4.24-1.68
			C392.06,123.49,391.49,122.07,391.49,120.38z M400.3,123.31c0.77-0.79,1.16-1.77,1.16-2.93c0-1.16-0.39-2.14-1.16-2.91
			c-0.77-0.79-1.73-1.18-2.89-1.18c-1.14,0-2.1,0.39-2.86,1.18c-0.77,0.77-1.16,1.75-1.16,2.91c0,1.16,0.39,2.14,1.16,2.93
			c0.77,0.77,1.73,1.16,2.86,1.16C398.57,124.47,399.54,124.08,400.3,123.31z" />
			<path class="st3" d="M408.11,126.07l-3.87-11.37h1.86l2.78,8.53l2.78-8.53h1.62l2.78,8.55l2.8-8.55h1.86l-3.89,11.37h-1.6
			l-2.75-8.31l-2.75,8.31H408.11z" />
			<path class="st3" d="M423.45,121.02c0.13,1.03,0.59,1.88,1.36,2.56c0.77,0.68,1.71,1.01,2.8,1.01c1.44,0,2.56-0.55,3.37-1.64
			l1.79,0.57c-1.05,1.73-2.95,2.8-5.16,2.8c-1.73,0-3.17-0.57-4.33-1.68c-1.16-1.14-1.73-2.56-1.73-4.24c0-1.68,0.57-3.11,1.68-4.22
			c1.11-1.14,2.51-1.71,4.18-1.71c1.66,0,3.06,0.57,4.18,1.71c1.11,1.12,1.68,2.54,1.68,4.22c0,0.13-0.02,0.35-0.04,0.63H423.45z
			 M431.37,119.53c-0.17-0.98-0.63-1.79-1.38-2.43c-0.74-0.63-1.62-0.94-2.62-0.94c-0.98,0-1.84,0.31-2.56,0.94
			c-0.72,0.63-1.16,1.44-1.33,2.43H431.37z" />
			<path class="st3" d="M437.45,126.07h-1.84V114.7h1.84v1.92c0.85-1.44,2.21-2.17,4.05-2.17h0.31v2.03
			c-0.24-0.09-0.5-0.13-0.81-0.13c-0.98,0-1.84,0.31-2.51,0.94c-0.68,0.63-1.03,1.4-1.03,2.34V126.07z" />
			<path class="st3" d="M444.6,121.02c0.13,1.03,0.59,1.88,1.36,2.56c0.77,0.68,1.71,1.01,2.8,1.01c1.44,0,2.56-0.55,3.37-1.64
			l1.79,0.57c-1.05,1.73-2.95,2.8-5.16,2.8c-1.73,0-3.17-0.57-4.33-1.68c-1.16-1.14-1.73-2.56-1.73-4.24c0-1.68,0.57-3.11,1.68-4.22
			c1.11-1.14,2.51-1.71,4.18-1.71c1.66,0,3.06,0.57,4.18,1.71c1.11,1.12,1.68,2.54,1.68,4.22c0,0.13-0.02,0.35-0.04,0.63H444.6z
			 M452.51,119.53c-0.17-0.98-0.63-1.79-1.38-2.43c-0.74-0.63-1.62-0.94-2.62-0.94c-0.98,0-1.84,0.31-2.56,0.94
			c-0.72,0.63-1.16,1.44-1.33,2.43H452.51z" />
			<path class="st3" d="M465.91,116.32v-6.65h1.84v16.4h-1.84v-1.62c-1.07,1.25-2.47,1.86-4.15,1.86c-1.6,0-2.93-0.57-4-1.68
			c-1.07-1.14-1.6-2.56-1.6-4.24c0-1.68,0.52-3.11,1.6-4.22c1.07-1.14,2.41-1.71,4-1.71C463.44,114.46,464.84,115.07,465.91,116.32z
			 M459.18,117.47c-0.74,0.77-1.12,1.75-1.12,2.91c0,1.16,0.37,2.14,1.12,2.93c0.77,0.77,1.68,1.16,2.78,1.16
			c1.12,0,2.03-0.39,2.78-1.16c0.77-0.79,1.14-1.77,1.14-2.93c0-1.16-0.37-2.14-1.14-2.91c-0.74-0.79-1.66-1.18-2.78-1.18
			C460.86,116.29,459.95,116.69,459.18,117.47z" />
		</g>
	</g>
</svg>